<svg xmlns="http://www.w3.org/2000/svg" width="48" height="48" fill="none" viewBox="0 0 48 48" id="magic-wand">
  <path fill="#000" d="M11.1003 22.2675C12.3735 22.5713 13.3816 23.5423 13.7328 24.8033L14.5928 27.8909C15.0268 29.4488 16.4458 30.5265 18.063 30.5265C19.7304 30.5265 21.18 29.3821 21.5669 27.7602L22.2462 24.9126C22.5612 23.5922 23.5921 22.5612 24.9125 22.2462L27.6649 21.5896C29.3427 21.1893 30.5265 19.6899 30.5265 17.965C30.5265 16.2419 29.3451 14.7435 27.6695 14.3415L24.9089 13.6793C23.5904 13.363 22.5615 12.3328 22.2469 11.0139L21.5896 8.25861C21.1894 6.5808 19.6899 5.39697 17.965 5.39697C16.2419 5.39697 14.7435 6.57839 14.3415 8.25396L13.6785 11.0177C13.3626 12.3345 12.3344 13.3626 11.0176 13.6785L8.254 14.3415C6.57841 14.7435 5.39696 16.2419 5.39696 17.965C5.39696 19.6899 6.58075 21.1893 8.25855 21.5896L11.1003 22.2675Z"></path>
  <path fill="#000" d="M24.9169 11.0066C25.9713 12.061 27.6808 12.061 28.7353 11.0066L29.3262 10.4156C30.3806 9.36121 30.3806 7.65167 29.3262 6.59726 28.2718 5.54284 26.5622 5.54285 25.5078 6.59727L24.9169 7.18822C23.8625 8.24264 23.8625 9.95219 24.9169 11.0066zM24.4878 24.4877C25.5422 23.4333 27.2517 23.4333 28.3061 24.4877L41.8122 37.9938C42.8666 39.0482 42.8666 40.7578 41.8122 41.8122 40.7578 42.8666 39.0483 42.8666 37.9939 41.8122L24.4878 28.3061C23.4334 27.2517 23.4334 25.5421 24.4878 24.4877zM6.59729 29.3263C7.65171 30.3807 9.36125 30.3807 10.4157 29.3263L11.0066 28.7353C12.061 27.6809 12.061 25.9714 11.0066 24.9169 9.9522 23.8625 8.24265 23.8625 7.18824 24.917L6.59728 25.5079C5.54287 26.5623 5.54287 28.2719 6.59729 29.3263zM7.18822 11.0066C8.24263 12.061 9.95218 12.061 11.0066 11.0066 12.061 9.95219 12.061 8.24264 11.0066 7.18822L10.4156 6.59727C9.36124 5.54285 7.65169 5.54284 6.59727 6.59726 5.54285 7.65167 5.54285 9.36121 6.59726 10.4156L7.18822 11.0066z"></path>
</svg>
